<svg width="18" height="18" viewBox="0 0 18 18" fill="none" xmlns="http://www.w3.org/2000/svg">
<g clip-path="url(#clip0_13_1269)">
<path d="M15 6.75C15 6.3375 14.6625 6 14.25 6H12V3.75C12 3.3375 11.6625 3 11.25 3C10.8375 3 10.5 3.3375 10.5 3.75V6H7.49999V3.75C7.49999 3.3375 7.16249 3 6.74999 3C6.33749 3 5.99999 3.3375 5.99999 3.75V6H3.74999C3.33749 6 2.99999 6.3375 2.99999 6.75C2.99999 7.1625 3.33749 7.5 3.74999 7.5H5.99999V10.5H3.74999C3.33749 10.5 2.99999 10.8375 2.99999 11.25C2.99999 11.6625 3.33749 12 3.74999 12H5.99999V14.25C5.99999 14.6625 6.33749 15 6.74999 15C7.16249 15 7.49999 14.6625 7.49999 14.25V12H10.5V14.25C10.5 14.6625 10.8375 15 11.25 15C11.6625 15 12 14.6625 12 14.25V12H14.25C14.6625 12 15 11.6625 15 11.25C15 10.8375 14.6625 10.5 14.25 10.5H12V7.5H14.25C14.6625 7.5 15 7.1625 15 6.75ZM10.5 10.5H7.49999V7.5H10.5V10.5Z" fill="#4A5662"/>
</g>
<defs>
<clipPath id="clip0_13_1269">
<rect width="18" height="18" fill="white"/>
</clipPath>
</defs>
</svg>
